<svg xmlns="http://www.w3.org/2000/svg" viewBox="0 0 493 110"><path d="M154.8 17.5c-1.8-6.7-7.1-12-13.8-13.8C128.9.4 80.2.4 80.2.4S31.5.4 19.4 3.7c-6.7 1.8-12 7.1-13.8 13.8C2.4 29.7 2.4 55 2.4 55s0 25.3 3.3 37.5c1.8 6.7 7.1 12 13.8 13.8 12.1 3.3 60.8 3.3 60.8 3.3s48.7 0 60.8-3.3c6.7-1.8 12-7.1 13.8-13.8 3.3-12.1 3.3-37.5 3.3-37.5s-.1-25.3-3.4-37.5z" fill="red"/><path d="M64.7 78.4L105.1 55 64.7 31.6zm163.7 21.3c-3.1-2.1-5.3-5.3-6.6-9.7s-1.9-10.2-1.9-17.5v-9.9c0-7.3.7-13.3 2.2-17.7 1.5-4.5 3.8-7.7 7-9.7s7.3-3.1 12.4-3.1c5 0 9.1 1 12.1 3.1s5.3 5.3 6.7 9.7 2.1 10.3 2.1 17.6v9.9c0 7.3-.7 13.1-2.1 17.5s-3.6 7.6-6.7 9.7c-3.1 2-7.3 3.1-12.5 3.1-5.4.1-9.6-1-12.7-3zM245.7 89c.9-2.2 1.3-5.9 1.3-10.9V56.8c0-4.9-.4-8.5-1.3-10.7-.9-2.3-2.4-3.4-4.5-3.4s-3.5 1.1-4.4 3.4-1.3 5.8-1.3 10.7v21.3c0 5 .4 8.7 1.2 10.9s2.3 3.3 4.5 3.3c2.1 0 3.6-1.1 4.5-3.3zm219.2-16.3v3.5l.4 9.9c.3 2.2.8 3.8 1.6 4.8s2.1 1.5 3.8 1.5c2.3 0 3.9-.9 4.7-2.7.9-1.8 1.3-4.8 1.4-8.9l13.3.8c.1.6.1 1.4.1 2.4 0 6.3-1.7 11-5.2 14.1s-8.3 4.7-14.6 4.7c-7.6 0-12.9-2.4-15.9-7.1s-4.6-12.1-4.6-22V61.6c0-10.2 1.6-17.7 4.7-22.4 3.2-4.7 8.6-7.1 16.2-7.1 5.3 0 9.3 1 12.1 2.9s4.8 4.9 6 9 1.7 9.7 1.7 16.9v11.7h-25.7zm2-28.8c-.8 1-1.3 2.5-1.6 4.7s-.4 5.5-.4 10v4.9h11.2v-4.9c0-4.4-.1-7.7-.4-10s-.8-3.9-1.6-4.8-2-1.4-3.6-1.4c-1.7.1-2.9.6-3.6 1.5zM191 71.4L173.5 8.2h15.3l6.1 28.6c1.6 7.1 2.7 13.1 3.5 18h.4c.5-3.6 1.7-9.5 3.5-17.9l6.3-28.7h15.3l-17.7 63.1v30.3H191V71.4zm121-38v68.3h-12l-1.3-8.4h-.3c-3.3 6.3-8.2 9.5-14.7 9.5-4.5 0-7.9-1.5-10-4.5-2.2-3-3.2-7.6-3.2-13.9v-51h15.4v50.1c0 3 .3 5.2 1 6.5s1.8 1.9 3.3 1.9c1.3 0 2.6-.4 3.8-1.2s2.1-1.9 2.7-3.1V33.4H312zm78.9 0v68.3h-12l-1.3-8.4h-.3c-3.3 6.3-8.2 9.5-14.7 9.5-4.5 0-7.9-1.5-10-4.5-2.2-3-3.2-7.6-3.2-13.9v-51h15.4v50.1c0 3 .3 5.2 1 6.5s1.8 1.9 3.3 1.9c1.3 0 2.6-.4 3.8-1.2s2.1-1.9 2.7-3.1V33.4h15.3zm-37.1-12.8h-15.3v81.1h-15V20.6h-15.3V8.2h45.5v12.4zm87.9 23.7c-.9-4.3-2.4-7.4-4.5-9.4-2.1-1.9-4.9-2.9-8.6-2.9-2.8 0-5.5.8-7.9 2.4-2.5 1.6-4.3 3.7-5.7 6.3h-.1v-36h-14.8v96.9h12.7l1.6-6.5h.3c1.2 2.3 3 4.1 5.3 5.5a16.26 16.26 0 0 0 7.9 2c5.2 0 9-2.4 11.5-7.2 2.4-4.8 3.7-12.3 3.7-22.4V62.2c0-7.6-.5-13.6-1.4-17.9zm-14.1 27.9c0 5-.2 8.9-.6 11.7s-1.1 4.8-2.1 6-2.3 1.8-3.9 1.8c-1.3 0-2.4-.3-3.5-.9s-1.9-1.5-2.6-2.7V49.3c.5-1.9 1.4-3.4 2.7-4.6s2.6-1.8 4.1-1.8c1.6 0 2.8.6 3.6 1.8.9 1.2 1.4 3.3 1.8 6.2.3 2.9.5 7 .5 12.4v8.9z" fill="#fff"/></svg>